# xmcd
#
# Track frame offsets:
#	182
#	10940
#	19672
#	31105
#	41062
#	49995
#	58645
#	68000
#	76397
#	84780
#	94717
#	103555
#	114615
#	124830
#
# Disc length: 1790 seconds
#
# Revision: 0
# Processed by: cddbd v1.5.2PL0 Copyright (c) Steve Scherf et al.
# Submitted via: dBpowerAMP V4.0
#
DISCID=a706fc0e
DTITLE=Earl Pitts - Family Life
DYEAR=1900
DGENRE=Club
TTITLE0=Unfaithful
TTITLE1=A Girl On EJ's Team
TTITLE2=Getting Old
TTITLE3=Nurturing Your Kids
TTITLE4=Spring Cleaning
TTITLE5=Ther Garage
TTITLE6=Mom's Healthcare
TTITLE7=Earl's Old Flame
TTITLE8=Emergency Room
TTITLE9=Toenails
TTITLE10=Seeing Yourself Naked
TTITLE11=Teenage Drinking
TTITLE12=Stains
TTITLE13=Royal Family Jewels
EXTD=
EXTT0=
EXTT1=
EXTT2=
EXTT3=
EXTT4=
EXTT5=
EXTT6=
EXTT7=
EXTT8=
EXTT9=
EXTT10=
EXTT11=
EXTT12=
EXTT13=
PLAYORDER=
